name processed_emg_signals						
nRows=90						
nColumns=7						
 						
endheader						
time	LGLTMED	LRF	LADDLONG	LST	LTA	LGM
1.74	0.023971592	0.172512453	0.080022522	0.044412371	0.250392042	0.017496244
1.741	0.023901282	0.17590475	0.080708276	0.042694253	0.256692036	0.017230455
1.742	0.023830706	0.179306803	0.081405378	0.04101532	0.262973452	0.016991269
1.743	0.023759942	0.182716621	0.082113403	0.039376076	0.269229717	0.016778073
1.744	0.023689067	0.186132194	0.082831912	0.037776975	0.275454271	0.016590238
1.745	0.023618163	0.189551494	0.083560454	0.036218419	0.281640573	0.016427118
1.746	0.023547308	0.192972472	0.084298562	0.034700757	0.28778211	0.016288052
1.747	0.023476583	0.196393063	0.085045762	0.033224288	0.293872408	0.016172364
1.748	0.02340607	0.199811185	0.085801562	0.031789261	0.299905037	0.016079365
1.749	0.02333585	0.203224738	0.086565464	0.030395876	0.305873625	0.016008355
1.75	0.023266006	0.206631609	0.087336953	0.029044283	0.311771864	0.015958624
1.751	0.023196619	0.210029667	0.088115508	0.027734583	0.317593518	0.015929451
1.752	0.023127772	0.213416771	0.088900594	0.026466833	0.323332435	0.015920109
1.753	0.023059549	0.216790766	0.089691667	0.025241038	0.328982557	0.015929862
1.754	0.022992031	0.220149486	0.090488173	0.024057162	0.334537924	0.015957971
1.755	0.022925302	0.223490755	0.09128955	0.022915123	0.339992686	0.01600369
1.756	0.022859444	0.226812389	0.092095224	0.021814794	0.345341113	0.016066271
1.757	0.022794539	0.230112198	0.092904617	0.020756006	0.350577602	0.016144965
1.758	0.02273067	0.233387985	0.093717139	0.019738548	0.355696685	0.016239021
1.759	0.022667917	0.236637552	0.094532196	0.018762169	0.36069304	0.016347689
1.76	0.022606361	0.239858697	0.095349185	0.017826578	0.365561496	0.016470219
1.761	0.022546083	0.243049219	0.096167498	0.016931445	0.370297043	0.016605866
1.762	0.02248716	0.246206919	0.096986522	0.016076404	0.374894838	0.016753886
1.763	0.022429672	0.249329602	0.097805638	0.015261052	0.379350218	0.016913542
1.764	0.022373695	0.25241508	0.098624223	0.014484953	0.383658697	0.017084102
1.765	0.022319305	0.255461173	0.09944165	0.013747636	0.387815984	0.017264841
1.766	0.022266575	0.258465711	0.100257289	0.013048598	0.39181798	0.017455041
1.767	0.022215578	0.261426537	0.101070508	0.012387305	0.395660792	0.017653994
1.768	0.022166384	0.264341511	0.101880673	0.011763196	0.399340731	0.017861001
1.769	0.022119063	0.267208508	0.102687149	0.011175679	0.402854325	0.018075374
1.77	0.022073681	0.270025426	0.1034893	0.010624136	0.406198318	0.018296436
1.771	0.022030303	0.272790183	0.104286491	0.010107924	0.409369677	0.018523524
1.772	0.021988991	0.275500723	0.105078088	0.009626376	0.412365594	0.018755985
1.773	0.021949804	0.278155018	0.105863457	0.009178802	0.415183493	0.018993183
1.774	0.0219128	0.280751069	0.106641969	0.008764491	0.417821028	0.019234494
1.775	0.021878033	0.28328691	0.107412995	0.008382712	0.420276089	0.019479313
1.776	0.021845554	0.28576061	0.108175913	0.008032715	0.422546803	0.019727046
1.777	0.021815412	0.288170275	0.108930102	0.007713735	0.424631535	0.01997712
1.778	0.021787651	0.290514051	0.109674949	0.007424988	0.42652889	0.020228976
1.779	0.021762315	0.292790125	0.110409845	0.007165679	0.428237712	0.020482075
1.78	0.021739439	0.294996729	0.11113419	0.006934998	0.429757085	0.020735895
1.781	0.021719061	0.297132143	0.111847388	0.006732123	0.431086333	0.020989932
1.782	0.02170121	0.299194693	0.112548854	0.006556224	0.432225019	0.021243701
1.783	0.021685913	0.301182758	0.113238009	0.00640646	0.433172942	0.021496738
1.784	0.021673195	0.303094769	0.113914287	0.006281983	0.43393014	0.021748598
1.785	0.021663073	0.304929213	0.114577128	0.006181938	0.434496881	0.021998854
1.786	0.021655563	0.306684631	0.115225985	0.006105468	0.434873667	0.022247102
1.787	0.021650676	0.308359626	0.115860323	0.006051708	0.435061229	0.022492957
1.788	0.021648419	0.309952857	0.116479617	0.006019793	0.435060521	0.022736054
1.789	0.021648792	0.311463049	0.117083356	0.006008857	0.434872721	0.022976051
1.79	0.021651795	0.312888986	0.117671042	0.006018033	0.434499222	0.023212625
1.791	0.021657419	0.314229518	0.118242191	0.006046456	0.433941633	0.023445474
1.792	0.021665652	0.31548356	0.118796332	0.006093262	0.43320177	0.023674318
1.793	0.02167648	0.316650093	0.119333011	0.006157591	0.432281654	0.023898897
1.794	0.02168988	0.317728167	0.119851788	0.006238589	0.431183503	0.024118973
1.795	0.021705826	0.318716897	0.120352239	0.006335405	0.42990973	0.024334327
1.796	0.021724289	0.319615469	0.120833956	0.006447198	0.428462933	0.024544764
1.797	0.021745231	0.320423138	0.121296549	0.006573132	0.426845895	0.024750107
1.798	0.021768613	0.321139228	0.121739642	0.006712381	0.425061571	0.0249502
1.799	0.02179439	0.321763135	0.12216288	0.006864128	0.423113087	0.025144909
1.8	0.02182251	0.322294324	0.122565924	0.007027568	0.421003732	0.025334119
1.801	0.021852919	0.322732332	0.122948453	0.007201906	0.41873695	0.025517735
1.802	0.021885557	0.323076765	0.123310163	0.007386362	0.416316337	0.025695682
1.803	0.021920357	0.323327304	0.123650771	0.007580165	0.41374563	0.025867905
1.804	0.021957252	0.323483698	0.12397001	0.007782564	0.411028703	0.026034368
1.805	0.021996164	0.323545768	0.124267634	0.007992818	0.40816956	0.026195053
1.806	0.022037014	0.323513406	0.124543415	0.008210204	0.405172329	0.026349962
1.807	0.022079719	0.323386576	0.124797143	0.008434016	0.40204125	0.026499116
1.808	0.022124186	0.32316531	0.125028628	0.008663563	0.398780676	0.026642551
1.809	0.022170324	0.322849713	0.1252377	0.008898175	0.395395061	0.026780323
1.81	0.022218031	0.322439958	0.125424207	0.009137197	0.391888954	0.026912504
1.811	0.022267204	0.321936288	0.125588017	0.009379997	0.388266992	0.027039185
1.812	0.022317734	0.321339015	0.125729016	0.009625959	0.384533896	0.02716047
1.813	0.022369508	0.320648519	0.12584711	0.00987449	0.380694462	0.027276482
1.814	0.022422408	0.31986525	0.125942226	0.010125016	0.376753552	0.027387356
1.815	0.022476312	0.318989723	0.126014308	0.010376986	0.372716093	0.027493247
1.816	0.022531092	0.318022519	0.126063319	0.010629868	0.368587068	0.027594319
1.817	0.022586617	0.316964287	0.126089243	0.010883156	0.364371506	0.027690754
1.818	0.022642752	0.31581574	0.126092081	0.011136362	0.360074483	0.027782746
1.819	0.022699358	0.314577656	0.126071854	0.011389025	0.35570111	0.027870501
1.82	0.02275629	0.313250877	0.126028603	0.011640704	0.351256529	0.027954241
1.821	0.022813401	0.311836307	0.125962384	0.011890983	0.346745908	0.028034196
1.822	0.02287054	0.310334911	0.125873276	0.01213947	0.342174431	0.02811061
1.823	0.022927551	0.308747718	0.125761373	0.012385794	0.3375473	0.028183736
1.824	0.022984277	0.307075816	0.125626789	0.012629612	0.33286972	0.02825384
1.825	0.023040556	0.30532035	0.125469655	0.012870602	0.3281469	0.028321195
1.826	0.023096221	0.303482526	0.125290121	0.013108469	0.323384048	0.028386085
1.827	0.023151106	0.301563606	0.125088354	0.013342939	0.31858636	0.028448803
1.828	0.02320504	0.29956491	0.124864538	0.013573766	0.313759019	0.028509648
1.829	0.023257849	0.297487811	0.124618874	0.013800726	0.308907191	0.02856893
